<svg xmlns="http://www.w3.org/2000/svg" xmlns:xlink="http://www.w3.org/1999/xlink" viewBox="0 0 595.28 1538.94"><defs><style>.cls-1,.cls-2{fill:none;stroke:#231815;stroke-miterlimit:10;}.cls-1{stroke-width:2px;}.cls-3{font-size:12px;fill:#094;}.cls-3,.cls-4,.cls-5,.cls-6{font-family:AdobeSongStd-Light-GBpc-EUC-H, Adobe Song Std;}.cls-4{font-size:8px;}.cls-4,.cls-5,.cls-6{fill:#231815;}.cls-5{font-size:13px;}.cls-6{font-size:19px;}</style><image id="image" width="2398" height="2132" xlink:href="%E6%AF%8D%E7%9A%84.png"/><image id="image-2" width="2398" height="2132" xlink:href="%E5%85%AC%E7%9A%84.png"/></defs><g id="三大洲"><line class="cls-1" x1="11.51" y1="266.16" x2="581.51" y2="266.16"/><line class="cls-1" x1="11.51" y1="640.61" x2="542.4" y2="640.61"/><line class="cls-2" x1="326.88" y1="605.08" x2="436.29" y2="605.08"/><line class="cls-2" x1="329.29" y1="605.08" x2="438.7" y2="605.08"/><line class="cls-1" x1="11.51" y1="1052.47" x2="319.09" y2="1052.47"/><line class="cls-2" x1="157.27" y1="1019.79" x2="267.17" y2="1019.79"/><line class="cls-2" x1="45.55" y1="267.31" x2="45.55" y2="273.32"/><line class="cls-2" x1="437.59" y1="267.31" x2="437.59" y2="273.32"/><line class="cls-2" x1="381.58" y1="267.31" x2="381.58" y2="273.32"/><line class="cls-2" x1="493.59" y1="267.31" x2="493.59" y2="273.32"/><line class="cls-2" x1="549.6" y1="267.31" x2="549.6" y2="273.32"/><line class="cls-2" x1="325.58" y1="267.31" x2="325.58" y2="273.32"/><line class="cls-2" x1="269.57" y1="267.31" x2="269.57" y2="273.32"/><line class="cls-2" x1="213.57" y1="267.31" x2="213.57" y2="273.32"/><line class="cls-2" x1="157.56" y1="267.31" x2="157.56" y2="273.32"/><line class="cls-2" x1="101.56" y1="267.31" x2="101.56" y2="273.32"/><line class="cls-2" x1="44.25" y1="640.43" x2="44.25" y2="646.43"/><line class="cls-2" x1="436.29" y1="640.43" x2="436.29" y2="646.43"/><line class="cls-2" x1="380.28" y1="640.43" x2="380.28" y2="646.43"/><line class="cls-2" x1="380.28" y1="604.98" x2="380.28" y2="610.98"/><line class="cls-2" x1="438.7" y1="604.98" x2="438.7" y2="610.98"/><line class="cls-2" x1="492.29" y1="640.43" x2="492.29" y2="646.43"/><line class="cls-2" x1="324.28" y1="640.43" x2="324.28" y2="646.43"/><line class="cls-2" x1="326.88" y1="604.98" x2="326.88" y2="610.98"/><line class="cls-2" x1="268.27" y1="640.43" x2="268.27" y2="646.43"/><line class="cls-2" x1="212.27" y1="640.43" x2="212.27" y2="646.43"/><line class="cls-2" x1="156.26" y1="640.43" x2="156.26" y2="646.43"/><line class="cls-2" x1="100.26" y1="640.43" x2="100.26" y2="646.43"/><line class="cls-2" x1="45.55" y1="1053.25" x2="45.55" y2="1059.25"/><line class="cls-2" x1="269.57" y1="1053.25" x2="269.57" y2="1059.25"/><line class="cls-2" x1="213.57" y1="1053.25" x2="213.57" y2="1059.25"/><line class="cls-2" x1="213.57" y1="1020.37" x2="213.57" y2="1026.37"/><line class="cls-2" x1="267.17" y1="1019.39" x2="267.17" y2="1025.39"/><line class="cls-2" x1="157.56" y1="1053.25" x2="157.56" y2="1059.25"/><line class="cls-2" x1="158.27" y1="1019.79" x2="158.27" y2="1025.79"/><line class="cls-2" x1="101.56" y1="1053.25" x2="101.56" y2="1059.25"/></g><g id="文字层"><text class="cls-3" transform="translate(33.55 324.93)">冰星</text><text class="cls-4" transform="translate(21.55 254.58)">马德里动物园</text><text class="cls-5" transform="translate(26.05 237.22)">西班牙</text><text class="cls-6" transform="translate(28.96 198.34)">欧洲旅外熊猫数量分布</text><text class="cls-6" transform="translate(21.55 564.52)">亚洲旅外熊猫数量分布</text><text class="cls-6" transform="translate(27.55 976.41)">美洲旅外熊猫数量分布</text><text class="cls-4" transform="translate(77.56 254.58)">爱丁堡动物园</text><text class="cls-5" transform="translate(88.56 237.22)">英国</text><text class="cls-4" transform="translate(133.56 254.58)">博瓦尔动物园</text><text class="cls-5" transform="translate(144.56 237.22)">法国</text><text class="cls-4" transform="translate(193.57 254.58)">天堂动物园</text><text class="cls-5" transform="translate(194.07 237.22)">比利时</text><text class="cls-4" transform="translate(245.57 254.58)">欧维汉动物园</text><text class="cls-5" transform="translate(256.57 237.22)">荷兰</text><text class="cls-4" transform="translate(309.58 254.58)">奥赫特里</text><text class="cls-4" transform="translate(313.58 262.23)">动物园</text><text class="cls-5" transform="translate(312.58 237.22)">芬兰</text><text class="cls-4" transform="translate(365.58 254.58)">哥本哈根</text><text class="cls-4" transform="translate(369.58 262.23)">动物园</text><text class="cls-5" transform="translate(368.58 237.22)">丹麦</text><text class="cls-4" transform="translate(417.59 254.58)">柏林动物园</text><text class="cls-5" transform="translate(424.59 237.22)">德国</text><text class="cls-4" transform="translate(469.6 254.58)">美泉宫动物园</text><text class="cls-5" transform="translate(474.09 237.22)">奥地利</text><text class="cls-4" transform="translate(525.6 254.58)">莫斯科动物园</text><text class="cls-5" transform="translate(530.1 237.22)">俄罗斯</text><text class="cls-4" transform="translate(25.55 621.23)">清迈动物园</text><text class="cls-5" transform="translate(32.55 601.87)">泰国</text><text class="cls-4" transform="translate(73.56 621.23)">马来西亚动物园</text><text class="cls-4" transform="translate(137.56 634.51)">动物保护区</text><text class="cls-5" transform="translate(75.56 601.87)">马来西亚</text><text class="cls-4" transform="translate(137.56 621.23)">新加坡野生</text><text class="cls-5" transform="translate(138.06 601.87)">新加坡</text><text class="cls-4" transform="translate(193.57 621.23)">塔曼动物园</text><text class="cls-5" transform="translate(181.07 601.87)">印度尼西亚</text><text class="cls-4" transform="translate(241.57 621.23)">爱宝乐园度假村</text><text class="cls-5" transform="translate(256.57 601.87)">韩国</text><text class="cls-4" transform="translate(21.55 1034.19)">查普尔特佩克</text><text class="cls-4" transform="translate(33.55 1043.95)">动物园</text><text class="cls-5" transform="translate(26.05 1016.83)">墨西哥</text><text class="cls-4" transform="translate(73.56 1034.19)">卡尔里加动物园</text><text class="cls-5" transform="translate(82.06 1016.83)">加拿大</text><text class="cls-4" transform="translate(133.18 1034.19)">孟菲斯动物园</text><text class="cls-5" transform="translate(200.57 1016.83)">美国</text><text class="cls-4" transform="translate(197.57 1034.19)">亚特兰大</text><text class="cls-4" transform="translate(201.57 1045.2)">动物园</text><text class="cls-4" transform="translate(241.57 1034.19)">史密森尼动物园</text><text class="cls-4" transform="translate(309.58 621.23)">科比王子</text><text class="cls-4" transform="translate(438.7 941.79)">为良滨于2020产仔</text><text class="cls-5" transform="translate(368.58 601.87)">日本</text><text class="cls-4" transform="translate(365.58 621.23)">冒险世界</text><text class="cls-4" transform="translate(417.59 621.23)">上野动物园</text><text class="cls-4" transform="translate(465.59 621.23)">阿德莱德动物园</text><text class="cls-5" transform="translate(467.59 601.87)">澳大利亚</text><text class="cls-3" transform="translate(33.55 699.76)">林惠</text><text class="cls-3" transform="translate(33.55 1112.26)">欣欣</text><text class="cls-3" transform="translate(145.18 1112.26)">乐乐</text><text class="cls-3" transform="translate(145.18 1162.72)">丫丫</text><text class="cls-3" transform="translate(33.55 1162.72)">双双</text><text class="cls-3" transform="translate(89.56 324.93)">阳光</text><text class="cls-3" transform="translate(89.56 375.39)">甜甜</text><text class="cls-3" transform="translate(145.56 699.76)">凯凯</text><text class="cls-3" transform="translate(145.56 750.22)">嘉嘉</text><text class="cls-3" transform="translate(481.59 699.76)">网网</text><text class="cls-3" transform="translate(313.58 699.76)">旦旦</text><text class="cls-3" transform="translate(481.59 750.22)">福妮</text><text class="cls-3" transform="translate(201.57 699.76)">彩陶</text><text class="cls-3" transform="translate(201.57 750.22)">湖春</text><text class="cls-3" transform="translate(313.58 324.93)">华豹</text><text class="cls-3" transform="translate(307.58 375.39)">金宝宝</text><text class="cls-3" transform="translate(369.58 324.93)">星二</text><text class="cls-3" transform="translate(369.58 375.39)">毛笋</text><text class="cls-3" transform="translate(481.59 324.93)">园园</text><text class="cls-3" transform="translate(481.59 375.39)">阳阳</text><text class="cls-3" transform="translate(537.6 324.93)">如意</text><text class="cls-3" transform="translate(537.6 375.39)">丁丁</text><text class="cls-3" transform="translate(201.57 476.31)">宝妹</text><text class="cls-3" transform="translate(201.57 526.77)">好好</text><text class="cls-3" transform="translate(27.55 375.39)">竹莉娜</text><text class="cls-3" transform="translate(27.55 425.85)">花嘴巴</text><text class="cls-3" transform="translate(145.56 324.93)">圆梦</text><text class="cls-3" transform="translate(145.56 375.39)">园子</text><text class="cls-3" transform="translate(145.56 425.85)">欢欢</text><text class="cls-3" transform="translate(89.56 699.76)">兴兴</text><text class="cls-3" transform="translate(89.56 750.22)">谊谊</text><text class="cls-3" transform="translate(89.56 800.68)">靓靓</text><text class="cls-3" transform="translate(425.59 699.76)">比力</text><text class="cls-3" transform="translate(425.59 750.22)">香香</text><text class="cls-3" transform="translate(425.59 800.68)">仙女</text><text class="cls-3" transform="translate(201.57 324.93)">宝弟</text><text class="cls-3" transform="translate(201.57 375.39)">天宝</text><text class="cls-3" transform="translate(201.57 425.85)">星徽</text><text class="cls-3" transform="translate(369.58 851.13)">樱滨</text><text class="cls-3" transform="translate(369.58 901.59)">桃滨</text><text class="cls-3" transform="translate(369.58 952.05)">良滨</text><text class="cls-3" transform="translate(369.58 699.76)">*良滨</text><text class="cls-3" transform="translate(431.45 926.23)">*良滨</text><text class="cls-3" transform="translate(369.58 750.22)">永明</text><text class="cls-3" transform="translate(369.58 800.68)">结滨</text><text class="cls-3" transform="translate(425.59 476.31)">梦梦</text><text class="cls-3" transform="translate(425.59 324.93)">梦园</text><text class="cls-3" transform="translate(425.59 375.39)">梦想</text><text class="cls-3" transform="translate(425.59 425.85)">娇庆</text><text class="cls-3" transform="translate(89.56 1263.64)">二顺</text><text class="cls-3" transform="translate(83.56 1112.26)">加盼盼</text><text class="cls-3" transform="translate(89.56 1162.72)">大毛</text><text class="cls-3" transform="translate(83.56 1213.18)">加悦悦</text><text class="cls-3" transform="translate(201.57 1263.64)">伦伦</text><text class="cls-3" transform="translate(201.57 1112.26)">洋洋</text><text class="cls-3" transform="translate(201.57 1162.72)">喜伦</text><text class="cls-3" transform="translate(201.57 1213.18)">雅伦</text><text class="cls-3" transform="translate(251.57 1112.26)">小奇迹</text><text class="cls-3" transform="translate(257.57 1162.72)">添添</text><text class="cls-3" transform="translate(257.57 1213.18)">美香</text><text class="cls-3" transform="translate(257.57 324.93)">梵星</text><text class="cls-3" transform="translate(257.57 375.39)">星雅</text><text class="cls-3" transform="translate(257.57 425.85)">武雯</text><text class="cls-3" transform="translate(257.57 699.76)">园欣</text><text class="cls-3" transform="translate(257.57 750.22)">华妮</text><text class="cls-3" transform="translate(257.57 800.68)">爱宝</text></g><g id="欧洲"><use transform="translate(30.31 385.58) scale(0.01)" xlink:href="#image"/><use transform="translate(30.31 335.79) scale(0.01)" xlink:href="#image"/><use transform="translate(86.31 335.79) scale(0.01)" xlink:href="#image"/><use transform="translate(198.32 485.16) scale(0.01)" xlink:href="#image"/><use transform="translate(254.33 385.58) scale(0.01)" xlink:href="#image"/><use transform="translate(310.33 335.79) scale(0.01)" xlink:href="#image"/><use transform="translate(198.32 435.37) scale(0.01)" xlink:href="#image"/><use transform="translate(142.32 385.58) scale(0.01)" xlink:href="#image"/><use transform="translate(30.31 286) scale(0.01)" xlink:href="#image-2"/><use transform="translate(198.32 385.58) scale(0.01)" xlink:href="#image-2"/><use transform="translate(198.32 335.79) scale(0.01)" xlink:href="#image-2"/><use transform="translate(198.32 286) scale(0.01)" xlink:href="#image-2"/><use transform="translate(86.31 286) scale(0.01)" xlink:href="#image-2"/><use transform="translate(254.33 286) scale(0.01)" xlink:href="#image-2"/><use transform="translate(310.33 286) scale(0.01)" xlink:href="#image-2"/><use transform="translate(366.34 335.79) scale(0.01)" xlink:href="#image"/><use transform="translate(422.34 435.37) scale(0.01)" xlink:href="#image"/><use transform="translate(534.35 335.79) scale(0.01)" xlink:href="#image"/><use transform="translate(478.35 335.79) scale(0.01)" xlink:href="#image"/><use transform="translate(366.34 286) scale(0.01)" xlink:href="#image-2"/><use transform="translate(422.34 385.58) scale(0.01)" xlink:href="#image-2"/><use transform="translate(422.34 335.79) scale(0.01)" xlink:href="#image-2"/><use transform="translate(422.34 286) scale(0.01)" xlink:href="#image-2"/><use transform="translate(534.35 286) scale(0.01)" xlink:href="#image-2"/><use transform="translate(478.35 286) scale(0.01)" xlink:href="#image-2"/><use transform="translate(254.33 335.79) scale(0.01)" xlink:href="#image-2"/><use transform="translate(142.32 335.79) scale(0.01)" xlink:href="#image-2"/><use transform="translate(142.32 286) scale(0.01)" xlink:href="#image-2"/></g><g id="亚洲"><use transform="translate(30.31 660.45) scale(0.01)" xlink:href="#image"/><use transform="translate(142.32 710.24) scale(0.01)" xlink:href="#image"/><use transform="translate(198.32 710.24) scale(0.01)" xlink:href="#image"/><use transform="translate(254.33 760.03) scale(0.01)" xlink:href="#image"/><use transform="translate(366.34 809.82) scale(0.01)" xlink:href="#image"/><use transform="translate(366.34 660.45) scale(0.01)" xlink:href="#image"/><use transform="translate(254.33 710.24) scale(0.01)" xlink:href="#image"/><use transform="translate(366.34 909.4) scale(0.01)" xlink:href="#image"/><use transform="translate(366.34 859.61) scale(0.01)" xlink:href="#image"/><use transform="translate(366.34 760.03) scale(0.01)" xlink:href="#image"/><use transform="translate(422.34 760.03) scale(0.01)" xlink:href="#image"/><use transform="translate(478.35 710.24) scale(0.01)" xlink:href="#image"/><use transform="translate(422.34 710.24) scale(0.01)" xlink:href="#image"/><use transform="translate(86.31 760.03) scale(0.01)" xlink:href="#image"/><use transform="translate(86.31 710.24) scale(0.01)" xlink:href="#image"/><use transform="translate(86.31 660.45) scale(0.01)" xlink:href="#image-2"/><use transform="translate(142.32 660.45) scale(0.01)" xlink:href="#image-2"/><use transform="translate(198.32 660.45) scale(0.01)" xlink:href="#image-2"/><use transform="translate(254.33 660.45) scale(0.01)" xlink:href="#image-2"/><use transform="translate(366.34 710.24) scale(0.01)" xlink:href="#image-2"/><use transform="translate(422.34 660.45) scale(0.01)" xlink:href="#image-2"/><use transform="translate(478.35 660.45) scale(0.01)" xlink:href="#image-2"/><use transform="translate(310.33 660.45) scale(0.01)" xlink:href="#image-2"/></g><g id="北美洲"><use transform="translate(142.32 1122.1) scale(0.01)" xlink:href="#image"/><use transform="translate(30.31 1072.31) scale(0.01)" xlink:href="#image"/><use transform="translate(30.31 1122.1) scale(0.01)" xlink:href="#image"/><use transform="translate(86.31 1171.89) scale(0.01)" xlink:href="#image"/><use transform="translate(86.31 1221.67) scale(0.01)" xlink:href="#image"/><use transform="translate(198.32 1122.1) scale(0.01)" xlink:href="#image"/><use transform="translate(198.32 1171.89) scale(0.01)" xlink:href="#image"/><use transform="translate(198.32 1221.67) scale(0.01)" xlink:href="#image"/><use transform="translate(254.33 1171.89) scale(0.01)" xlink:href="#image"/><use transform="translate(86.31 1072.31) scale(0.01)" xlink:href="#image-2"/><use transform="translate(198.32 1072.31) scale(0.01)" xlink:href="#image-2"/><use transform="translate(254.33 1072.31) scale(0.01)" xlink:href="#image-2"/><use transform="translate(254.33 1122.1) scale(0.01)" xlink:href="#image-2"/><use transform="translate(142.32 1072.31) scale(0.01)" xlink:href="#image-2"/><use transform="translate(86.31 1122.1) scale(0.01)" xlink:href="#image-2"/></g><g id="提示"><use transform="translate(374.12 1135.65) scale(0.01)" xlink:href="#image-2"/><use transform="translate(375.54 1176.7) scale(0.01)" xlink:href="#image"/><text class="cls-5" transform="translate(417.55 1153.28)">雄性</text><text class="cls-5" transform="translate(418.16 1194.32)">雌雄</text><text class="cls-5" transform="translate(419.55 1226.2)">绿色字体为熊猫的名字</text><text class="cls-3" transform="translate(382 1225.89)">美香</text></g></svg>